<svg width="81" height="86" viewBox="0 0 81 86" fill="none" xmlns="http://www.w3.org/2000/svg">
<g clip-path="url(#clip0_2_2913)">
<path d="M33.5168 8.72961H30.7175V11.4777H33.5168V8.72961Z" fill="white"/>
<path d="M36.3159 5.98145H33.5166V8.72954H36.3159V5.98145Z" fill="white"/>
<path d="M39.1152 3.24805H36.3159V5.99615H39.1152V3.24805Z" fill="white"/>
<path d="M50.2824 8.72961H47.4832V11.4777H50.2824V8.72961Z" fill="white"/>
<path d="M47.4834 5.98145H44.6841V8.72954H47.4834V5.98145Z" fill="white"/>
<path d="M44.699 3.24805H41.8997V5.99615H44.699V3.24805Z" fill="white"/>
<path d="M41.8996 0.5H39.1003V3.2481H41.8996V0.5Z" fill="white"/>
<path d="M53.0669 14.2111V11.463H50.2826V14.2111H47.4833H44.684V16.9592V19.6926V22.4407V25.1741H41.8996H39.1003H36.316V22.4407V19.6926V16.9592V14.2111H33.5167H30.7174V11.463H27.9331V14.2111H25.1338V16.9592V19.6926V22.4407H27.9331H30.7174H33.5167V25.1741V27.9222V30.6556V33.4037H36.316H39.1003H41.8996H44.684H47.4833V30.6556V27.9222V25.1741V22.4407H50.2826H53.0669H55.8662V19.6926V16.9592V14.2111H53.0669Z" fill="white"/>
<path d="M11.1821 30.6555H8.38281V33.4036H11.1821V30.6555Z" fill="white"/>
<path d="M8.38304 33.4037H5.58374V36.1518H8.38304V33.4037Z" fill="white"/>
<path d="M5.59861 36.1517H2.79932V38.8998H5.59861V36.1517Z" fill="white"/>
<path d="M25.1338 33.4037H22.3495H19.5502H16.7659V30.6556V27.9222V25.1741H13.9666V27.9222H11.1673V30.6556H13.9666V33.4037V36.1518H16.7659H19.5502H22.3495H25.1338V38.8852V41.6333V44.3667H22.3495H19.5502H16.7659H13.9666V47.1148V49.8629H11.1673V47.1148H8.38293V44.3667H5.58363V41.6333H2.7993V38.8852H0V41.6333V44.3667V47.1148H2.7993V49.8629H5.58363V52.5963H8.38293V55.3444H11.1673V58.0778H13.9666V60.8259H16.7659V58.0778V55.3444V52.5963H19.5502H22.3495H25.1338H27.9331V49.8629V47.1148V44.3667V41.6333V38.8852V36.1518V33.4037H25.1338Z" fill="white"/>
<path d="M53.0669 63.574H47.4833V52.611H33.5167V63.574H25.1338V71.8036H27.9331V74.5517H30.7324V77.2998H33.5317V80.0479H36.331V82.796H39.1303V85.5441H41.9296V82.796H44.7289V80.0479H47.5282V77.2998H50.3275V74.5517H53.1268V71.8036H55.9261V63.574H53.1268H53.0669ZM33.5167 66.3074H36.316V55.3444H44.6989V66.3074H50.2826V69.0555H47.4833V71.8036H44.684V74.5517H41.8847V77.2998H39.0854V74.5517H36.2861V71.8036H33.4868V69.0555H30.6875V66.3074H33.4868H33.5167Z" fill="white"/>
<path d="M72.6321 30.6555H69.8328V33.4036H72.6321V30.6555Z" fill="white"/>
<path d="M75.4165 33.4037H72.6172V36.1518H75.4165V33.4037Z" fill="white"/>
<path d="M78.2156 36.1517H75.4163V38.8998H78.2156V36.1517Z" fill="white"/>
<path d="M78.2007 38.8852V41.6333H75.4164V44.3667H72.6171V47.1148H69.8327V49.8629H67.0334V47.1148V44.3667H64.2491H61.4498H58.6505H55.8662V41.6333V38.8852V36.1518H58.6505H61.4498H64.2491H67.0334V33.4037V30.6556H69.8327V27.9222H67.0334V25.1741H64.2491V27.9222V30.6556V33.4037H61.4498H58.6505H55.8662H53.0669V36.1518V38.8852V41.6333V44.3667V47.1148V49.8629V52.5963H55.8662H58.6505H61.4498H64.2491V55.3444V58.0778V60.8259H67.0334V58.0778H69.8327V55.3444H72.6171V52.5963H75.4164V49.8629H78.2007V47.1148H81V44.3667V41.6333V38.8852H78.2007Z" fill="white"/>
</g>
<defs>
<clipPath id="clip0_2_2913">
<rect width="81" height="85" fill="white" transform="translate(0 0.5)"/>
</clipPath>
</defs>
</svg>
